<?xml version="1.0" encoding="UTF-8" standalone="no"?>
<svg
   width="620"
   height="680"
   version="1.1"
   viewBox="0 0 620 680"
   xml:space="preserve"
   id="svg4"
   sodipodi:docname="NOTICE_en.svg"
   inkscape:version="1.4 (e7c3feb100, 2024-10-09)"
   inkscape:export-filename="NOTICE_en.png"
   inkscape:export-xdpi="96"
   inkscape:export-ydpi="96"
   xmlns:inkscape="http://www.inkscape.org/namespaces/inkscape"
   xmlns:sodipodi="http://sodipodi.sourceforge.net/DTD/sodipodi-0.dtd"
   xmlns="http://www.w3.org/2000/svg"
   xmlns:svg="http://www.w3.org/2000/svg"
   xmlns:rdf="http://www.w3.org/1999/02/22-rdf-syntax-ns#"
   xmlns:cc="http://creativecommons.org/ns#"
   xmlns:dc="http://purl.org/dc/elements/1.1/"><title
     id="title4">(Holloway) Chew, Kean Ho's Liberal License QR Notice</title><defs
     id="defs4" /><sodipodi:namedview
     id="namedview4"
     pagecolor="#505050"
     bordercolor="#ffffff"
     borderopacity="1"
     inkscape:showpageshadow="0"
     inkscape:pageopacity="0"
     inkscape:pagecheckerboard="1"
     inkscape:deskcolor="#505050"
     inkscape:zoom="0.67261377"
     inkscape:cx="256.46219"
     inkscape:cy="361.27717"
     inkscape:window-width="1920"
     inkscape:window-height="971"
     inkscape:window-x="0"
     inkscape:window-y="40"
     inkscape:window-maximized="1"
     inkscape:current-layer="svg4" /><metadata
     id="metadata4"><rdf:RDF><cc:Work
         rdf:about=""><dc:title>(Holloway) Chew, Kean Ho's Liberal License QR Notice</dc:title><dc:date>November 1, 2024</dc:date><dc:creator><cc:Agent><dc:title>(Holloway) Chew, Kean Ho</dc:title></cc:Agent></dc:creator><dc:rights><cc:Agent><dc:title>All Rights Reserved</dc:title></cc:Agent></dc:rights><dc:publisher><cc:Agent><dc:title>(Holloway) Chew, Kean Ho</dc:title></cc:Agent></dc:publisher><dc:identifier>chewkeanho-license-liberal</dc:identifier><dc:relation>license notice</dc:relation><dc:language>english</dc:language><dc:source>https://doi.org/10.5281/zenodo.13770769</dc:source><dc:coverage>license, liberal</dc:coverage><dc:subject><rdf:Bag><rdf:li>license</rdf:li><rdf:li>liberal</rdf:li></rdf:Bag></dc:subject><cc:license
           rdf:resource="http://creativecommons.org/licenses/by-nd/4.0/" /></cc:Work><cc:License
         rdf:about="http://creativecommons.org/licenses/by-nd/4.0/"><cc:permits
           rdf:resource="http://creativecommons.org/ns#Reproduction" /><cc:permits
           rdf:resource="http://creativecommons.org/ns#Distribution" /><cc:requires
           rdf:resource="http://creativecommons.org/ns#Notice" /><cc:requires
           rdf:resource="http://creativecommons.org/ns#Attribution" /></cc:License></rdf:RDF></metadata><g
     id="foreground"
     inkscape:label="foreground"><path
       style="fill:#000000;"
       d="m 22.898576,679.25068 v -53.50136 h 4.346049 v 49.52997 h 25.102181 v 3.97139 z m 50.653908,0 H 57.816789 v -2.69754 l 5.694823,-0.82425 v -46.38284 l -5.694823,-0.89919 v -2.69754 h 15.735695 v 2.69754 l -5.694823,0.89919 v 46.38284 l 5.694823,0.82425 z m 26.076359,-53.50136 q 9.891017,0 14.611717,3.14714 4.7207,3.0722 4.7207,9.89101 0,4.64577 -2.69755,7.94278 -2.62261,3.297 -7.71797,4.19618 v 0.2248 q 5.84468,0.97412 8.91689,4.12125 3.07221,3.14714 3.07221,8.76704 0,5.17029 -2.39783,8.54223 -2.39781,3.37194 -6.66893,5.02044 -4.19618,1.64849 -9.74114,1.64849 H 84.79233 v -53.50136 z m 0.974117,23.60354 q 7.41825,0 10.64033,-2.54768 3.22206,-2.54769 3.22206,-7.56812 0,-5.1703 -3.5218,-7.41825 -3.52179,-2.24796 -11.314707,-2.24796 H 89.13838 v 19.78201 z m -11.46458,3.74659 v 22.32971 h 12.2139 q 7.34332,0 10.94005,-2.92235 3.59673,-2.99727 3.59673,-8.69209 0,-5.54496 -3.74659,-8.09265 -3.7466,-2.62262 -11.46458,-2.62262 z m 72.38419,26.15123 h -29.3733 v -53.50136 h 29.3733 v 3.89646 H 136.49532 V 649.203 h 23.60354 v 3.89645 h -23.60354 v 22.25478 h 25.02725 z m 25.40186,-53.50136 q 9.59129,0 14.38693,3.37194 4.87057,3.29699 4.87057,11.31471 0,6.14441 -3.297,9.66621 -3.22207,3.44687 -8.09264,4.87057 l 14.68664,24.27793 h -5.17029 l -13.63761,-23.07902 h -12.73842 v 23.07902 h -4.34604 v -53.50136 z m -0.37465,3.82153 h -8.61717 v 22.85422 h 10.11581 q 6.51907,0 10.04087,-2.99727 3.59673,-3.07221 3.59673,-8.84196 0,-6.14442 -3.7466,-8.54224 -3.74659,-2.47275 -11.38964,-2.47275 z m 65.49051,49.67983 -7.11853,-18.43324 h -22.17984 l -7.19347,18.43324 h -4.4959 l 21.05585,-53.72616 h 3.97139 l 20.53133,53.72616 z m -15.58584,-41.66212 q -0.44959,-1.04905 -1.19891,-3.29701 -0.74932,-2.24795 -1.27384,-3.97139 -0.59946,2.02316 -1.27384,3.97139 -0.67439,1.94824 -1.12398,3.37194 l -7.41826,19.18256 h 19.40736 z m 27.64984,41.66212 v -53.50136 h 4.34605 v 49.52997 h 25.10219 v 3.97139 z m 58.0722,0 v -53.50136 h 4.34605 v 49.52997 h 25.10218 v 3.97139 z m 50.65388,0 h -15.7357 v -2.69754 l 5.69483,-0.82425 v -46.38284 l -5.69483,-0.89919 v -2.69754 h 15.7357 v 2.69754 l -5.69483,0.89919 v 46.38284 l 5.69483,0.82425 z m 34.01916,-50.35422 q -6.59401,0 -11.31471,2.99727 -4.72071,2.92235 -7.2684,8.24251 -2.47275,5.24523 -2.47275,12.2139 0,7.19346 2.24796,12.58856 2.24796,5.32015 6.74387,8.2425 4.57084,2.92234 11.31471,2.92234 3.89646,0 7.11853,-0.59945 3.297,-0.59945 6.21935,-1.57357 v 3.82152 q -2.77248,1.04905 -6.06949,1.64851 Q 410.0716,680 405.65062,680 q -8.09264,0 -13.56267,-3.44686 -5.39509,-3.44687 -8.16758,-9.66622 -2.69755,-6.21934 -2.69755,-14.53678 0,-7.94278 2.99728,-14.0872 3.07221,-6.21934 8.76704,-9.74114 Q 398.75689,625 406.92446,625 q 7.79292,0 14.01226,2.92234 l -1.72343,3.82153 q -5.76976,-2.84741 -12.36376,-2.84741 z m 63.54215,50.35422 h -4.64577 l -31.0218,-46.75749 h -0.22479 q 0.14985,2.92234 0.22479,6.21935 0.14986,3.22207 0.14986,6.74387 v 33.79427 h -4.12125 v -53.50136 h 4.64578 l 30.94687,46.60763 h 0.22479 q -0.14987,-2.32289 -0.22479,-5.91962 -0.0749,-3.59673 -0.0749,-6.74387 v -33.94414 h 4.12125 z m 44.35968,0 h -29.37329 v -53.50136 h 29.37329 v 3.89646 H 489.72412 V 649.203 h 23.60354 v 3.89645 h -23.60354 v 22.25478 h 25.02724 z m 41.73706,-13.93732 q 0,4.79564 -2.39783,8.09263 -2.39781,3.29701 -6.594,4.94551 -4.19618,1.6485 -9.51635,1.6485 -4.87057,0 -8.4673,-0.67438 -3.59673,-0.67439 -6.14442,-1.72343 v -4.27112 q 2.77249,1.12397 6.59401,1.94822 3.82152,0.82425 8.2425,0.82425 6.14442,0 9.96595,-2.62261 3.89646,-2.62262 3.89646,-7.86785 0,-3.14714 -1.49864,-5.1703 -1.42371,-2.0981 -4.49592,-3.59673 -2.99727,-1.57357 -7.71798,-3.14714 -4.49591,-1.49864 -7.71799,-3.37193 -3.22206,-1.8733 -4.94549,-4.64578 -1.72344,-2.84741 -1.72344,-7.11853 0,-4.34605 2.17303,-7.34332 2.24795,-3.07221 6.06948,-4.64578 Q 536.10694,625 541.05245,625 q 3.89646,0 7.41826,0.74932 3.52179,0.74932 6.66893,2.0981 l -1.4237,3.74659 q -6.44414,-2.69755 -12.81336,-2.69755 -5.54495,0 -9.06675,2.47275 -3.44687,2.39782 -3.44687,7.11853 0,3.44687 1.49864,5.54496 1.49864,2.02316 4.34604,3.44686 2.84742,1.42371 6.96867,2.84742 4.72071,1.6485 8.09264,3.44687 3.44687,1.79836 5.32017,4.57083 1.8733,2.69755 1.8733,6.96868 z m 40.613,13.93732 h -29.3733 v -53.50136 h 29.3733 v 3.89646 H 572.07418 V 649.203 h 23.60354 v 3.89645 h -23.60354 v 22.25478 h 25.02724 z"
       id="label"
       inkscape:label="label"
       aria-label="LIBERAL LICNESE" /><path
       style="fill:#000000;"
       d="M 0,561.35135 V 502.70269 H 58.648651 117.29731 V 561.35135 620 H 58.648651 0 Z m 100.54054,0 V 519.45946 H 58.648651 16.756761 v 41.89189 41.89188 h 41.89189 41.891889 z m -67.027024,0 v -25.13514 h 25.135135 25.135137 v 25.13514 25.13513 H 58.648651 33.513516 Z m 117.297294,50.27027 v -8.37839 h 8.37837 8.37838 v -8.37837 -8.37838 h 8.37838 8.37838 v -8.37838 -8.37837 h 8.37838 8.37838 v -8.37838 -8.37838 h 8.37838 8.37838 v -8.37838 -8.37838 h -16.75676 -16.75676 v 8.37838 8.37838 h -8.37838 -8.37838 v 8.37838 8.37838 h -8.37838 -8.37837 v -8.37838 -8.37838 h -8.37837 -8.37838 v -41.89189 -41.89189 h -8.37838 -8.37837 v 8.37837 8.37838 H 100.54054 83.783788 v -8.37838 -8.37837 h -8.378383 -8.378373 v -8.37837 -8.37838 H 50.270269 33.513516 v -8.37838 -8.37838 H 16.756761 0 v -16.75676 -16.75676 h 8.3783811 8.3783799 v 8.37838 8.37838 h 8.378374 8.378381 v -16.75676 -16.75675 h 8.378381 8.378372 v -8.37839 -8.37837 H 25.135135 0 v -8.37838 -8.37838 h 25.135135 25.135134 v 8.37838 8.37838 h 16.756763 16.756756 v -8.37838 -8.37838 h -8.378383 -8.378373 v -8.37837 -8.37838 H 33.513516 0 v -8.37838 -8.37838 H 25.135135 50.270269 V 310 301.62162 h 16.756763 16.756756 v -8.37838 -8.37838 H 58.648651 33.513516 v 8.37838 8.37838 H 16.756761 0 v -8.37838 -8.37838 h 16.756761 16.756755 v -16.75675 -16.75676 h 8.37838 8.378373 v 8.37838 8.37838 h 8.378382 8.378381 V 251.35135 234.59459 H 50.270269 33.513516 v -8.37838 -8.37837 h -8.378381 -8.378374 v -8.37838 -8.37838 H 8.3783811 0 v -8.37837 -8.37838 h 16.756761 16.756755 v -8.37838 -8.37838 H 16.756761 0 v -8.37838 -8.37838 h 16.756761 16.756755 v 8.37838 8.37838 h 8.37838 8.378373 v -8.37838 -8.37838 h 8.378382 8.378381 v -8.37838 -8.37837 h 33.513508 33.51352 V 108.91892 83.78379 h 8.37838 8.37837 v 16.75675 16.75676 h 8.37837 8.37838 v -8.37838 -8.37838 h 8.37838 8.37838 v 16.75676 16.75676 h -25.13514 -25.13512 v 8.37837 8.37838 h -16.75675 -16.75677 v 8.37838 8.37838 h 16.75677 16.75675 v 8.37838 8.37838 h 16.75675 16.75675 v -16.75676 -16.75676 h 16.75676 16.75676 v -25.13513 -25.13514 h 8.37838 8.37838 v 16.75676 16.75676 h 16.75675 16.75676 v -8.37838 -8.37838 h -8.37837 -8.37839 V 100.54054 83.78379 h 16.75676 16.75676 v -8.37838 -8.378378 h -33.51352 -33.51351 v 8.378378 8.37838 h -8.37838 -8.37838 v -8.37838 -8.378378 h -8.37838 -8.37838 v -8.378381 -8.378382 h -8.37837 -8.37837 v -8.378373 -8.37838 h -8.37838 -8.37838 v -8.378381 -8.378374 h 8.37838 8.37838 v 8.378374 8.378381 h 8.37837 8.37837 v -8.378381 -8.378374 h 16.75676 16.75676 v 16.756755 16.756753 h 16.75676 16.75675 v -8.378373 -8.37838 h -8.37838 -8.37837 V 16.756761 0 h 8.37837 8.37838 v 16.756761 16.756755 h 16.75676 16.75676 v 16.756753 16.756763 h 8.37837 8.37838 V 41.891896 16.756761 h -8.37838 -8.37837 V 8.37838 0 h 8.37837 8.37838 v 8.37838 8.378381 h 16.75676 16.75676 V 8.37838 0 h 8.37838 8.37838 v 8.37838 8.378381 h -8.37838 -8.37838 v 16.756755 16.756753 h 8.37838 8.37838 v 8.378382 8.378381 h 25.13513 25.13514 v -8.378381 -8.378382 h 8.37838 8.37837 v 8.378382 8.378381 h 8.37838 8.37838 v -8.378381 -8.378382 h 16.75676 16.75676 v -8.378373 -8.37838 h 16.75674 16.75676 v 16.756753 16.756763 h -8.37838 -8.37838 v 8.378378 8.37838 h 8.37838 8.37838 v 16.75675 16.75676 h -8.37838 -8.37838 V 100.54054 83.78379 h -16.75674 -16.75676 v -8.37838 -8.378378 h -8.37838 -8.37838 V 92.16216 117.2973 h 8.37838 8.37838 v -8.37838 -8.37838 h 8.37838 8.37838 v 8.37838 8.37838 h -8.37838 -8.37838 v 16.75676 16.75675 h 8.37838 8.37838 v -8.37838 -8.37837 h 16.75674 16.75676 v 8.37837 8.37838 h 8.37838 8.37837 v -8.37838 -8.37837 h 16.75677 16.75675 v 8.37837 8.37838 h 16.75676 16.75676 v 8.37838 8.37838 h 8.37837 8.37838 v -16.75676 -16.75675 h 8.37838 8.37837 v 33.51351 33.51351 h -16.75675 -16.75675 v 8.37838 8.37838 h 8.37837 8.37838 v 8.37837 8.37838 h 8.37838 8.37837 v 8.37839 8.37837 h -8.37837 -8.37838 v 25.13513 25.13514 h -8.37838 -8.37837 V 310 318.37838 H 594.86486 620 v 8.37838 8.37838 h -8.37838 -8.37839 v 8.37838 8.37837 H 611.62162 620 v 8.37838 8.37838 h -8.37838 -8.37839 v 8.37837 8.37839 H 611.62162 620 v 16.75675 16.75676 h -8.37838 -8.37839 v 16.75676 16.75676 H 611.62162 620 v 16.75674 16.75676 h -8.37838 -8.37839 v -8.37838 -8.37837 h -8.37837 -8.37838 v 8.37837 8.37838 h -8.37838 -8.37837 v 8.37838 8.37837 h 8.37837 8.37838 v 16.75677 16.75675 h 8.37838 8.37837 v -8.37838 -8.37837 H 611.62162 620 v 8.37837 8.37838 h -8.37838 -8.37839 v 8.37838 8.37838 H 611.62162 620 v 8.37838 8.37838 h -8.37838 -8.37839 v 16.75675 16.75675 H 611.62162 620 V 611.62162 620 h -33.51352 -33.51351 v -8.37838 -8.37839 H 527.83783 502.70269 V 611.62162 620 h -8.37837 -8.37838 v -8.37838 -8.37839 h 8.37838 8.37837 V 578.1081 552.97297 h -8.37837 -8.37838 v 8.37838 8.37838 h -8.37838 -8.37838 v -41.8919 -41.89189 h -8.37837 -8.37837 v 33.51352 33.51351 h -8.37838 -8.37838 v 8.37838 8.37838 h -8.37838 -8.37838 v -8.37838 -8.37838 h -25.13513 -25.13514 v 8.37838 8.37838 h -8.37838 -8.37838 v 8.37837 8.37838 h -16.75675 -16.75676 v 8.37838 8.37837 H 310 301.62162 V 611.62162 620 h -8.37838 -8.37838 v -8.37838 -8.37839 h 8.37838 8.37838 v -8.37837 -8.37838 H 284.86486 268.10811 V 603.24323 620 h -58.64865 -58.64864 z m 418.91892,-16.75676 v -8.37838 h 8.37837 8.37838 v -8.37838 -8.37837 h -16.75675 -16.75676 v -8.37838 -8.37838 h -16.75676 -16.75675 v 8.37838 8.37838 h 8.37837 8.37838 v 8.37837 8.37838 h 8.37838 8.37838 v 8.37838 8.37837 h 8.37838 8.37838 z M 251.35135,578.1081 v -8.37837 h 25.13513 25.13514 v 8.37837 8.37838 H 310 h 8.37838 v -8.37838 -8.37837 h 16.75676 16.75675 v -8.37838 -8.37838 h 8.37838 8.37838 v -8.37838 -8.37838 h -8.37838 -8.37838 v 8.37838 8.37838 h -8.37837 -8.37838 v -16.75676 -16.75675 h -33.51352 -33.51351 v -16.75677 -16.75675 h -8.37838 -8.37838 v -8.37838 -8.37837 h -16.75676 -16.75675 v -16.75675 -16.75676 h 16.75675 16.75676 v 8.37838 8.37838 h 8.37838 8.37838 v 8.37838 8.37837 h 8.37837 8.37838 v 16.75675 16.75675 h 8.37838 8.37838 v -8.37837 -8.37838 h 16.75676 16.75676 v 8.37838 8.37837 h 8.37838 8.37837 v 8.37839 8.37838 h 8.37838 8.37838 v -8.37838 -8.37839 h 25.13514 25.13513 v 25.13514 25.13514 h 8.37838 8.37838 v -25.13514 -25.13514 h -8.37838 -8.37838 v -8.37837 -8.37838 h 16.75676 16.75676 v -8.37838 -8.37837 h 25.13512 25.13513 v -8.37837 -8.37838 h 16.75677 16.75675 v 8.37838 8.37837 h 8.37838 8.37838 v -8.37837 -8.37838 h 8.37838 8.37838 v -8.37838 -8.37838 h 8.37837 8.37838 v -8.37838 -8.37838 h 8.37838 8.37837 v -8.37838 -8.37838 h -8.37837 -8.37838 v 8.37838 8.37838 h -8.37838 -8.37837 v -8.37838 -8.37838 h -8.37838 -8.37838 v -8.37837 -8.37838 h 8.37838 8.37838 v -8.37839 -8.37837 h 16.75675 16.75675 v -8.37838 -8.37838 h -16.75675 -16.75675 v -16.75675 -16.75676 h -16.75676 -16.75676 v -16.75676 -16.75676 h 8.37838 8.37838 v -8.37838 -8.37837 h 8.37838 8.37838 v -8.37838 -8.37838 h -8.37838 -8.37838 v 8.37838 8.37838 h -8.37838 -8.37838 v -25.13513 -25.13514 h 8.37838 8.37838 v 8.37837 8.37838 h 8.37838 8.37838 v -8.37838 -8.37837 h -8.37838 -8.37838 v -8.37838 -8.37838 h -8.37838 -8.37838 v 8.37838 8.37838 h -16.75675 -16.75677 v 8.37837 8.37838 h -16.75675 -16.75675 v 8.37839 8.37837 h -25.13513 -25.13514 v -8.37837 -8.37839 h 8.37838 8.37838 v -8.37838 -8.37837 h 25.13514 25.13512 v -8.37838 -8.37838 h -25.13512 -25.13514 v -8.37838 -8.37837 h -25.13514 -25.13513 v -8.37838 -8.37838 h -8.37839 -8.37837 v -8.37838 -8.37838 h 16.75676 16.75675 v 8.37838 8.37838 h 16.75676 16.75676 v -8.37838 -8.37838 h -8.37838 -8.37838 V 134.05406 117.2973 h -8.37838 -8.37838 v -8.37838 -8.37838 h -8.37837 -8.37838 v -8.37838 -8.37837 h 8.37838 8.37837 v -8.37838 -8.378378 h -8.37837 -8.37838 v 8.378378 8.37838 h -8.37839 -8.37837 v 8.37837 8.37838 h -8.37838 -8.37838 v 33.51352 33.51351 h -8.37837 -8.37838 v 8.37838 8.37838 h -8.37838 -8.37838 v -8.37838 -8.37838 h -25.13514 -25.13513 v -8.37838 -8.37838 h 16.75675 16.75676 v -8.37838 -8.37837 H 310 h 8.37838 v 8.37837 8.37838 h 8.37838 8.37838 V 117.2973 83.78379 h -8.37838 -8.37838 V 67.027032 50.270269 H 310 301.62162 v 25.135141 25.13513 h -8.37838 -8.37838 v 8.37838 8.37838 h -8.37838 -8.37837 v -8.37838 -8.37838 h -8.37838 -8.37838 v 8.37838 8.37838 h 8.37838 8.37838 v 16.75676 16.75675 h -25.13513 -25.13514 v 8.37838 8.37838 h -8.37838 -8.37838 v 25.13514 25.13513 h -8.37838 -8.37838 v -8.37838 -8.37838 h -8.37838 -8.37838 v 8.37838 8.37838 h 8.37838 8.37838 v 8.37837 8.37838 h 8.37838 8.37838 v 16.75676 16.75676 h -16.75676 -16.75676 v -16.75676 -16.75676 h -25.13512 -25.13513 v -8.37838 -8.37837 H 92.162167 67.027032 v 8.37837 8.37838 h 25.135135 25.135143 v 8.37839 8.37837 h -8.37839 -8.37838 v 8.37838 8.37838 h -8.378373 -8.378379 v 8.37837 8.37838 h 8.378379 8.378373 v 8.37838 8.37838 H 92.162167 83.783788 V 310 v 8.37838 h 8.378379 8.378373 v 8.37838 8.37838 h -8.378373 -8.378379 v 8.37838 8.37837 h 8.378379 8.378373 v 8.37838 8.37838 h 25.13514 25.13514 v 8.37837 8.37839 h 8.37837 8.37837 v 8.37838 8.37837 h 16.75676 16.75676 v 8.37838 8.37838 h -8.37838 -8.37838 v 8.37838 8.37838 h 8.37838 8.37838 v 16.75676 16.75674 h 8.37838 8.37838 v 16.75676 16.75675 h -16.75676 -16.75676 v 8.37839 8.37838 h -16.75676 -16.75674 v 16.75675 16.75676 h 8.37837 8.37837 v -8.37838 -8.37838 h 8.37838 8.37838 v -8.37838 -8.37837 h 16.75676 16.75676 v 8.37837 8.37838 h 8.37837 8.37838 v 8.37838 8.37838 h 8.37839 8.37837 v 8.37838 8.37838 h -8.37837 -8.37839 v 8.37837 8.37838 h 8.37839 8.37837 z m 0,-41.89189 v -16.75675 h -16.75676 -16.75675 v -8.37838 -8.37839 h 16.75675 16.75676 v 8.37839 8.37838 h 8.37838 8.37838 v 8.37837 8.37838 h 25.13513 25.13514 v 8.37838 8.37838 h -33.51352 -33.51351 z m 100.54054,-41.89189 v -8.37838 h 8.37838 8.37838 v 8.37838 8.37837 h -8.37838 -8.37838 z m 50.27027,-16.75676 v -8.37838 h -8.37837 -8.37838 v -8.37836 -8.37838 h -16.75676 -16.75676 v -8.37838 -8.37838 h -8.37837 -8.37838 v 16.75676 16.75675 h -16.75676 -16.75676 v -8.37837 -8.37838 h -8.37838 -8.37838 v -8.37838 -8.37838 h -16.75675 -16.75676 v -16.75676 -16.75676 h -8.37837 -8.37839 v 8.37838 8.37838 h -8.37838 -8.37837 v 8.37838 8.37838 h -8.37838 -8.37838 v -8.37838 -8.37838 h 8.37838 8.37838 v -8.37838 -8.37838 h -8.37838 -8.37838 v -16.75675 -16.75676 h 16.75676 16.75675 v 8.37837 8.37839 h 16.75676 16.75676 v -16.75676 -16.75676 h -33.51352 -33.51351 v -16.75675 -16.75676 h -8.37838 -8.37838 v 16.75676 16.75675 h -8.37838 -8.37838 v 8.37838 8.37838 h 8.37838 8.37838 v 8.37837 8.37839 h -8.37838 -8.37838 v -8.37839 -8.37837 h -8.37837 -8.37837 v -16.75676 -16.75675 h 8.37837 8.37837 v -8.37838 -8.37838 h 8.37838 8.37838 V 310 301.62162 h -16.75676 -16.75674 v -8.37838 -8.37838 h 25.13512 25.13514 v -8.37838 -8.37837 h 16.75676 16.75675 v -16.75676 -16.75676 h -16.75675 -16.75676 v -8.37838 -8.37837 h 25.13513 25.13514 v 25.13514 25.13513 h 8.37838 8.37838 v -8.37838 -8.37838 h 8.37837 8.37838 v -8.37837 -8.37839 h -8.37838 -8.37837 v -25.13513 -25.13513 h -8.37838 -8.37838 v 8.37838 8.37837 h -8.37837 -8.37839 v -8.37837 -8.37838 h -8.37838 -8.37837 v -8.37838 -8.37838 h 25.13514 25.13513 v 8.37838 8.37838 h 8.37837 8.37838 v 16.75675 16.75676 h 8.37838 8.37838 v 16.75675 16.75676 H 310 h 8.37838 v -8.37837 -8.37839 h 8.37838 8.37838 v -25.13513 -25.13513 h 8.37838 8.37837 v -8.37838 -8.37838 h 8.37838 8.37838 v 8.37838 8.37838 h -8.37838 -8.37838 v 33.51351 33.51351 h 8.37838 8.37838 v 8.37838 8.37838 h 16.75676 16.75675 v -8.37838 -8.37838 h -8.37837 -8.37838 v -8.37837 -8.37839 h 8.37838 8.37837 v 8.37839 8.37837 h 8.37838 8.37838 v 8.37838 8.37838 h -8.37838 -8.37838 v 16.75675 16.75676 H 385.40541 368.64865 V 310 v 8.37838 h 8.37837 8.37839 v 16.75676 16.75675 h -8.37839 -8.37837 v -8.37837 -8.37838 h -8.37838 -8.37838 v 8.37838 8.37837 h -16.75675 -16.75676 v -8.37837 -8.37838 h -16.75676 -16.75676 v -16.75676 -16.75676 h -8.37838 -8.37837 V 310 v 8.37838 h -16.75676 -16.75676 v 8.37838 8.37838 h 16.75676 16.75676 v 8.37838 8.37837 h 16.75675 16.75676 v 8.37838 8.37838 h -8.37838 -8.37838 v 8.37837 8.37839 h 33.51352 33.51351 v -8.37839 -8.37837 h 16.75676 16.75676 v 8.37837 8.37839 h -8.37839 -8.37837 v 8.37838 8.37837 h 8.37837 8.37839 v 8.37838 8.37838 h -8.37839 -8.37837 v 8.37838 8.37838 h 16.75676 16.75675 v -8.37838 -8.37838 h 8.37838 8.37838 v -8.37838 -8.37838 h 8.37838 8.37838 v -8.37837 -8.37838 h 8.37838 8.37838 v -8.37839 -8.37837 h -16.75676 -16.75676 v -8.37838 -8.37838 h 8.37838 8.37838 v -16.75675 -16.75676 h -8.37838 -8.37838 V 310 301.62162 h 16.75676 16.75676 v -8.37838 -8.37838 h -8.37838 -8.37838 v -8.37838 -8.37837 h 25.13513 25.13513 v 8.37837 8.37838 h -8.37838 -8.37838 v 16.75676 16.75676 h 8.37838 8.37838 v 8.37838 8.37838 h 16.75675 16.75677 v 8.37838 8.37837 h -16.75677 -16.75675 v -8.37837 -8.37838 h -16.75676 -16.75674 v 8.37838 8.37837 h 8.37837 8.37837 v 8.37838 8.37838 h 16.75676 16.75675 v 16.75676 16.75675 h 8.37839 8.37838 v -8.37837 -8.37838 h 8.37837 8.37838 v 8.37838 8.37837 h 8.37838 8.37838 v 25.13514 25.13514 h -8.37838 -8.37838 v -8.37838 -8.37838 h -16.75675 -16.75677 v 8.37838 8.37838 h -16.75675 -16.75676 v -16.75676 -16.75676 h -16.75674 -16.75676 v 8.37838 8.37838 h 8.37838 8.37838 v 8.37838 8.37838 h -8.37838 -8.37838 v -8.37838 -8.37838 h -8.37838 -8.37838 v 8.37838 8.37838 h -8.37838 -8.37838 v 8.37837 8.37837 h 8.37838 8.37838 v 8.37838 8.37838 h -8.37838 -8.37838 z m -83.78378,-33.5135 v -8.37838 H 310 301.62162 v -8.37838 -8.37838 h -8.37838 -8.37838 v 8.37838 8.37838 h 8.37838 8.37838 v 8.37838 8.37838 H 310 h 8.37838 z m 184.32431,-25.13514 v -16.75676 h -16.75675 -16.75676 v -8.37837 -8.37838 h -8.37837 -8.37837 v 8.37838 8.37837 h 8.37837 8.37837 v 8.37838 8.37838 h 8.37838 8.37838 v 8.37838 8.37838 h 8.37838 8.37837 z m -134.05404,-8.37838 v -8.37838 h -25.13513 -25.13514 v 8.37838 8.37838 h 25.13514 25.13513 z m 167.56756,0 v -8.37838 h -8.37838 -8.37837 v 8.37838 8.37838 h 8.37837 8.37838 z M 234.59459,393.78379 v -8.37838 h -8.37838 -8.37837 v 8.37838 8.37837 h 8.37837 8.37838 z m 117.2973,-67.02703 v -8.37838 h -8.37837 -8.37838 v 8.37838 8.37838 h 8.37838 8.37837 z M 234.59459,310 v -8.37838 h -8.37838 -8.37837 v -8.37838 -8.37838 h -8.37838 -8.37838 v 8.37838 8.37838 h 8.37838 8.37838 V 310 v 8.37838 h 8.37837 8.37838 z m 83.78379,0 v -8.37838 h 25.13514 25.13513 v -16.75676 -16.75675 h -25.13513 -25.13514 v 8.37837 8.37838 h -16.75676 -16.75676 v -8.37838 -8.37837 h -8.37838 -8.37837 v 8.37837 8.37838 h -8.37838 -8.37838 v -8.37838 -8.37837 h -8.37837 -8.37839 v 8.37837 8.37838 h 8.37839 8.37837 v 8.37838 8.37838 h 8.37838 8.37838 v -8.37838 -8.37838 h 8.37837 8.37838 v 8.37838 8.37838 h 8.37838 8.37838 V 310 318.37838 H 310 h 8.37838 z m 217.83783,50.27027 v -8.37838 h 8.37838 8.37838 v 8.37838 8.37838 h -8.37838 -8.37838 z M 100.54054,343.51352 v -8.37838 h 8.37838 8.37839 v -8.37838 -8.37838 h -8.37839 -8.37838 V 310 301.62162 h 8.37838 8.37839 v -8.37838 -8.37838 h -8.37839 -8.37838 v -8.37838 -8.37837 h 16.75677 16.75675 v 16.75675 16.75676 h -8.37838 -8.37837 V 310 v 8.37838 h 8.37837 8.37838 v 16.75676 16.75675 h -16.75675 -16.75677 z m 402.16215,-75.40541 v -16.75676 h 8.37839 8.37838 v 8.37838 8.37838 h 8.37837 8.37838 v 8.37837 8.37838 H 519.45946 502.70269 Z M 368.64865,209.45946 v -8.37838 h 25.13514 25.13513 v 8.37838 8.37838 h -25.13513 -25.13514 z m -67.02703,-16.75675 v -8.37838 H 310 h 8.37838 v 8.37838 8.37837 H 310 301.62162 Z m -16.75676,-67.02703 v -8.37838 h 8.37838 8.37838 v -8.37838 -8.37838 H 310 h 8.37838 v 8.37838 8.37838 H 310 301.62162 v 8.37838 8.37838 h -8.37838 -8.37838 z m 83.78379,-16.75676 v -8.37838 h 8.37837 8.37839 v 8.37838 8.37838 h -8.37839 -8.37837 z m 167.56756,402.16216 v -25.13514 h -25.13513 -25.13514 v 25.13514 25.13513 h 25.13514 25.13513 z m -33.51352,0 v -8.37839 h 8.37839 8.37838 v 8.37839 8.37838 h -8.37838 -8.37839 z m 67.02704,16.75675 v -8.37837 h -8.37838 -8.37838 v 8.37837 8.37838 h 8.37838 8.37838 z M 167.56756,477.56756 v -8.37837 h 8.37838 8.37838 v -8.37837 -8.37838 h -8.37838 -8.37838 v -16.75676 -16.75676 h -8.37838 -8.37837 v -8.37838 -8.37838 h -8.37837 -8.37838 v -8.37837 -8.37838 h -16.75675 -16.75677 v 8.37838 8.37837 H 75.405405 50.270269 v 16.75676 16.75676 h 8.378382 8.378381 v 8.37838 8.37838 h 8.378373 8.378383 v 8.37838 8.37837 h 16.756752 16.75677 v -8.37837 -8.37838 h -8.37839 -8.37838 v -8.37838 -8.37838 h 16.75677 16.75675 v 16.75676 16.75675 h 8.37838 8.37837 v 8.37837 8.37838 h 8.37837 8.37838 z M 67.027032,427.2973 v -8.37838 h 16.756756 16.756752 v -8.37838 -8.37838 h 8.37838 8.37839 v 8.37838 8.37838 h -8.37839 -8.37838 v 8.37838 8.37838 H 83.783788 67.027032 Z m 67.027028,0 v -8.37838 h 8.37838 8.37837 v 8.37838 8.37838 h -8.37837 -8.37838 z M 50.270269,209.45946 v -8.37838 h 8.378382 8.378381 v -8.37837 -8.37838 H 50.270269 33.513516 v 16.75675 16.75676 h 8.378381 8.378372 z m 100.540541,0 v -8.37838 h -8.37837 -8.37838 v -8.37837 -8.37838 H 108.91892 83.783788 v 8.37838 8.37837 h 25.135132 25.13514 v 8.37838 8.37838 h 8.37838 8.37837 z m 368.64865,-16.75675 v -8.37838 h 16.75675 16.75676 v -8.37838 -8.37838 h -8.37838 -8.37838 v -8.37838 -8.37838 h -8.37838 -8.37837 v 8.37838 8.37838 h -8.37838 -8.37839 v 16.75676 16.75675 h 8.37839 8.37838 z m -33.51352,-25.13514 v -16.75676 h -16.75676 -16.75674 v 8.37838 8.37838 h 8.37837 8.37837 v 8.37838 8.37838 h 8.37838 8.37838 z M 83.783788,159.18919 v -8.37838 h -8.378383 -8.378373 v 8.37838 8.37838 h 8.378373 8.378383 z M 201.08108,58.648651 v -8.378382 h -8.37838 -8.37838 v 8.378382 8.378381 h 8.37838 8.37838 z M 335.13514,611.62162 v -8.37839 h 8.37838 8.37837 V 611.62162 620 h -8.37837 -8.37838 z m 50.27027,0 v -8.37839 h -8.37839 -8.37837 v -8.37837 -8.37838 h 8.37837 8.37839 v 8.37838 8.37837 h 8.37838 8.37837 v -8.37837 -8.37838 h 8.37838 8.37838 v 8.37838 8.37837 h 16.75676 16.75676 V 611.62162 620 H 418.91892 385.40541 Z M 0,477.56756 v -8.37837 h 16.756761 16.756755 v 8.37837 8.37838 H 16.756761 0 Z M 0,251.35135 v -16.75676 h 8.3783811 8.3783799 v 16.75676 16.75676 H 8.3783811 0 Z M 0,58.648651 V 0 H 58.648651 117.29731 V 58.648651 117.2973 H 58.648651 0 Z m 100.54054,0 V 16.756761 H 58.648651 16.756761 v 41.89189 41.891889 h 41.89189 41.891889 z m -67.027024,0 V 33.513516 H 58.648651 83.783788 V 58.648651 83.78379 H 58.648651 33.513516 Z m 469.189174,0 V 0 H 561.35135 620 V 58.648651 117.2973 h -58.64865 -58.64866 z m 100.54054,0 v -41.89189 h -41.89188 -41.89189 v 41.89189 41.891889 h 41.89189 41.89188 z m -67.02702,0 V 33.513516 h 25.13514 25.13513 V 58.648651 83.78379 H 561.35135 536.21621 Z M 351.89189,41.891896 v -8.37838 h 8.37838 8.37838 v 8.37838 8.378373 h -8.37838 -8.37838 z M 402.16216,25.135135 V 16.756761 H 377.02702 351.89189 V 8.37838 0 h 58.64865 58.64865 v 8.37838 8.378381 h -16.75675 -16.75676 v 8.378374 8.378381 h -16.75676 -16.75676 z"
       id="path1"
       inkscape:label="qr" /></g></svg>
